<svg width="108" height="108" viewBox="0 0 108 108" fill="none" xmlns="http://www.w3.org/2000/svg">
<rect width="108" height="108" fill="#6EA5FF"/>
<g clip-path="url(#clip0_1231_48)">
<rect x="18" y="18" width="72" height="72" rx="7" fill="#6EA5FF"/>
<ellipse cx="47.1961" cy="67.641" rx="40.0739" ry="33.8626" transform="rotate(45.8004 47.1961 67.641)" fill="white"/>
<path d="M51.0431 27.9845C51.4875 27.439 52.3558 27.5791 52.6061 28.2368L55.0747 34.7247C55.3249 35.3824 54.7694 36.0643 54.0747 35.9522L47.2217 34.8461C46.527 34.7339 46.2142 33.9119 46.6587 33.3664L51.0431 27.9845Z" fill="white"/>
<path d="M67.7939 32.8442C68.4289 32.5411 69.1539 33.039 69.099 33.7405L68.557 40.661C68.502 41.3625 67.7083 41.7415 67.1282 41.3431L61.4059 37.4134C60.8259 37.0151 60.8945 36.1382 61.5295 35.8351L67.7939 32.8442Z" fill="white"/>
<path d="M79.4343 44.0987C80.1342 44.0263 80.65 44.7387 80.3628 45.381L77.5295 51.7182C77.2423 52.3606 76.3674 52.4511 75.9547 51.8812L71.8832 46.2589C71.4705 45.689 71.8295 44.886 72.5294 44.8136L79.4343 44.0987Z" fill="white"/>
<path d="M86.406 60.1188C87.0662 60.3622 87.2152 61.2291 86.6743 61.6791L81.3376 66.1184C80.7967 66.5684 79.9714 66.264 79.8522 65.5706L78.676 58.7292C78.5568 58.0357 79.2329 57.4732 79.8931 57.7167L86.406 60.1188Z" fill="white"/>
<circle cx="18.7348" cy="61.6548" r="13.8257" fill="#FFEFEF"/>
<circle cx="51.1131" cy="89.4009" r="13.8257" fill="#FFEFEF"/>
<path fill-rule="evenodd" clip-rule="evenodd" d="M42.2975 58.5158C41.5718 57.7246 40.5815 57.4428 39.985 57.895C39.3327 58.3894 39.3983 59.5742 40.1315 60.5413C40.1988 60.6301 40.2695 60.7141 40.3427 60.7928C38.7212 62.0589 36.8751 62.3885 35.8908 61.4754C34.7183 60.3878 35.2123 57.949 36.9942 56.0282C38.776 54.1074 41.1709 53.4319 42.3433 54.5195C43.2336 55.3454 43.163 56.9502 42.2975 58.5158Z" fill="black"/>
<path fill-rule="evenodd" clip-rule="evenodd" d="M57.1222 72.096C56.3966 71.3048 55.4063 71.023 54.8098 71.4752C54.1576 71.9697 54.2232 73.1545 54.9563 74.1216C55.0236 74.2104 55.0943 74.2942 55.1675 74.373C53.546 75.639 51.6999 75.9686 50.7156 75.0554C49.5432 73.9678 50.0372 71.529 51.819 69.6082C53.6008 67.6874 55.9957 67.012 57.1682 68.0996C58.0584 68.9255 57.9879 70.5304 57.1222 72.096Z" fill="black"/>
</g>
<defs>
<clipPath id="clip0_1231_48">
<rect x="18" y="18" width="72" height="72" rx="7" fill="white"/>
</clipPath>
</defs>
</svg>
