<svg width="1024" height="1024" viewBox="0 0 1024 1024" fill="none" xmlns="http://www.w3.org/2000/svg">
<g clip-path="url(#clip0_1117_394)">
<rect width="1024" height="1024" rx="100" fill="#6EA5FF"/>
<ellipse cx="415.233" cy="705.998" rx="569.939" ry="481.602" transform="rotate(45.8004 415.233 705.998)" fill="white"/>
<path d="M469.946 141.995C476.267 134.236 488.616 136.229 492.175 145.582L527.284 237.856C530.843 247.209 522.942 256.907 513.063 255.313L415.597 239.582C405.718 237.987 401.269 226.295 407.59 218.537L469.946 141.995Z" fill="white"/>
<path d="M708.18 211.119C717.211 206.807 727.523 213.889 726.741 223.866L719.032 322.291C718.251 332.268 706.962 337.657 698.713 331.992L617.328 276.103C609.079 270.438 610.056 257.967 619.087 253.655L708.18 211.119Z" fill="white"/>
<path d="M873.732 371.185C883.686 370.154 891.023 380.286 886.938 389.422L846.641 479.55C842.557 488.686 830.114 489.974 824.244 481.869L766.339 401.907C760.47 393.801 765.575 382.382 775.53 381.351L873.732 371.185Z" fill="white"/>
<path d="M972.886 599.017C982.275 602.48 984.395 614.808 976.701 621.208L900.802 684.345C893.108 690.745 881.372 686.417 879.676 676.554L862.948 579.255C861.252 569.392 870.869 561.392 880.258 564.855L972.886 599.017Z" fill="white"/>
<circle cx="10.4501" cy="620.872" r="196.632" fill="#FFEFEF"/>
<circle cx="470.943" cy="1015.49" r="196.632" fill="#FFEFEF"/>
<path fill-rule="evenodd" clip-rule="evenodd" d="M345.564 576.225C335.243 564.972 321.159 560.964 312.675 567.395C303.399 574.427 304.332 591.278 314.759 605.032C315.717 606.295 316.721 607.489 317.763 608.609C294.702 626.615 268.446 631.303 254.446 618.316C237.772 602.848 244.798 568.163 270.139 540.845C295.481 513.527 329.542 503.921 346.216 519.389C358.878 531.134 357.874 553.959 345.564 576.225Z" fill="black"/>
<path fill-rule="evenodd" clip-rule="evenodd" d="M556.407 769.374C546.086 758.121 532.001 754.113 523.518 760.545C514.241 767.577 515.174 784.427 525.601 798.181C526.559 799.445 527.564 800.638 528.606 801.758C505.545 819.765 479.289 824.453 465.289 811.466C448.614 795.997 455.64 761.312 480.982 733.994C506.323 706.676 540.384 697.07 557.059 712.538C569.72 724.284 568.717 747.108 556.407 769.374Z" fill="black"/>
</g>
<defs>
<clipPath id="clip0_1117_394">
<rect width="1024" height="1024" rx="100" fill="white"/>
</clipPath>
</defs>
</svg>
